# xmcd
#
# Track frame offsets:
#	150
#	15191
#	30674
#	45038
#	58000
#	72260
#	83629
#	98857
#	113964
#	127531
#	141807
#	154857
#	168795
#	182202
#	194747
#	209041
#	222601
#	237926
#	249275
#	262906
#
# Disc length: 3688 seconds
# Revision: 1
# Processed by: cddbd v1.5.2PL0 Copyright (c) Steve Scherf et al.
# Submitted via: dBpowerAMP V12.0
#
DISCID=0d0e6614
DTITLE=Various Artist - The Blues
DYEAR=2011
DGENRE=Blues
TTITLE0=Mamie Smith - Crazy Blues
TTITLE1=Bessie Smith - Down Hearted Blues
TTITLE2=Ma Rainey - C C Rider
TTITLE3=Blind Lemon Jefferson - See That My Grave Is Kept Clean
TTITLE4=Bline Willie Johnson - Nobody's Fault
TTITLE5=Blind Willie McTell - Statesbro Blues
TTITLE6=Mississippi John Hurt - Frankie
TTITLE7=Tommy Johnson - Big Road Blues
TTITLE8=Leroy Carr - How Long, How Long Blues
TTITLE9=Memphis Minnie - When The Levee Breaks
TTITLE10=Robert Wilkins - That's No Way To Get Along
TTITLE11=Hambone Willie Newbern - Roll And Tumble Blues
TTITLE12=Charley Patton - Pony Blues
TTITLE13=Big Bill Broonzy - I Can't Be Satisfied
TTITLE14=Son House - My Black Mama Pt.1
TTITLE15=Sleepy John Estes - I'm Not Complainin'
TTITLE16=Big Joe Williams - Baby Please Don't Go
TTITLE17=Robert Johnson - Cross Road Blues
TTITLE18=Robert Johnson - Sweet Home Chicago
TTITLE19=Sonny Boy Williamson I (John Lee Curtis) - Good Morning Little Schoolgirl
EXTD=
EXTT0=
EXTT1=
EXTT2=
EXTT3=
EXTT4=
EXTT5=
EXTT6=
EXTT7=
EXTT8=
EXTT9=
EXTT10=
EXTT11=
EXTT12=
EXTT13=
EXTT14=
EXTT15=
EXTT16=
EXTT17=
EXTT18=
EXTT19=
PLAYORDER=
